<svg width="272" height="137" viewBox="0 0 272 137" fill="none" xmlns="http://www.w3.org/2000/svg">
<path d="M2.00003 2C2.00003 2 16.2704 38.2999 36.5 41.5C48.3827 43.3797 58 39 66.5 34.5C77.2161 28.8268 85.3238 21.7978 96.5 26.5C108.093 31.3776 100.171 49.5373 111.5 55C125.842 61.9154 134.264 45.0295 149 39C156.786 35.8144 161.406 34.6179 169 31C174.599 28.3325 176.889 24.5646 183 23.5C192.861 21.7818 198.467 27.2664 207 32.5C227.61 45.1411 259.882 73.3148 239 85.5C236.431 86.9989 234.447 86.8099 232 88.5C220.303 96.5782 227.915 121.58 242 123.5C248.245 124.351 252.329 115.395 257.5 119C261.4 121.719 258.26 127.02 261.5 130.5C263.942 133.124 269.5 135 269.5 135" stroke="#07243A" stroke-width="4" stroke-linecap="round" stroke-linejoin="round"/>
</svg>
